# xmcd
#
# Track frame offsets: 
#        150
#        14579
#        27120
#        42222
#        54913
#        68272
#        82508
#        95882
#        110167
#        124336
#        138118
#        150234
#        161861
#        174193
#        188719
#        203443
#        215460
#        230627
#        244745
#        259489
#        277533
#        291460
#        303999
#
# Disc length: 4232 seconds
#
# Revision: 0
# Processed by: cddbd v1.5.2PL0 Copyright (c) Steve Scherf et al.
# Submitted via: ExactAudioCopy v0.95b4
#
DISCID=32108617
DTITLE=Various Artist - Piano Blues
DYEAR=1900
DGENRE=Blues
TTITLE0=Pine Top Smith-State Street Jive
TTITLE1=Montana Taylor-Pinetop´s Boogie Woogie
TTITLE2=Lil Johnson-Detroit Rocks
TTITLE3=Romeo Nelson-House Rent Scuffle
TTITLE4=Sylvester Palmer-Rag Head Hop
TTITLE5=Henry Brown-Mean Blues
TTITLE6=Wesley Wallace-Deep Morgan Blues
TTITLE7=Lee Green-Fanny Lee Blues
TTITLE8=Louise Johnson-Memphis Fives
TTITLE9=Walter Roland-On The Wall
TTITLE10=Little Brother Montgomery-Dices´Blues
TTITLE11=Pinetop and Lindberg-Frisco Hi-Ball Blues
TTITLE12=Jabo Williams-East Chicago Blues
TTITLE13=Turner Parrish-Fat Mama Blues
TTITLE14=Leroy Carr-Fives
TTITLE15=George Noble-Barrelhouse Woman No. 2
TTITLE16=Dot Rice-Dozing Blues
TTITLE17=Roosevelt Sykes-Texas Stomp
TTITLE18=Black Ivory King-The Cannonball
TTITLE19=Albert Ammons-The Flying Crow
TTITLE20=Cripple Clarence Lofton-Chicago In Mind
TTITLE21=Jimmy Yancey-Had A Dream
TTITLE22=´Cow Cow´Davenport and Ivy Smith-At The Window
EXTD=
EXTT0=
EXTT1=
EXTT2=
EXTT3=
EXTT4=
EXTT5=
EXTT6=
EXTT7=
EXTT8=
EXTT9=
EXTT10=
EXTT11=
EXTT12=
EXTT13=
EXTT14=
EXTT15=
EXTT16=
EXTT17=
EXTT18=
EXTT19=
EXTT20=
EXTT21=
EXTT22=
PLAYORDER=
